<?xml version="1.0" encoding="iso-8859-1"?>
<!-- Generator: Adobe Illustrator 19.0.0, SVG Export Plug-In . SVG Version: 6.00 Build 0)  -->
<svg version="1.1" id="Layer_1" xmlns="http://www.w3.org/2000/svg" xmlns:xlink="http://www.w3.org/1999/xlink" x="0px" y="0px"
	 viewBox="0 0 512 512" style="enable-background:new 0 0 512 512;" xml:space="preserve">
<g>
	<g>
		<g>
			<path d="M204.8,332.8c0-4.71-3.823-8.533-8.533-8.533h-128c-28.237,0-51.2-22.963-51.2-51.2c0-28.237,22.963-51.2,51.2-51.2
				c4.71,0,8.533-3.823,8.533-8.533c0-4.71-3.823-8.533-8.533-8.533C30.626,204.8,0,235.426,0,273.067
				c0,37.641,30.626,68.267,68.267,68.267h128C200.977,341.333,204.8,337.51,204.8,332.8z"/>
			<path d="M196.096,72.363c3.917,2.637,9.216,1.587,11.836-2.321c22.281-33.178,59.392-52.975,99.268-52.975
				c65.877,0,119.467,53.589,119.467,119.467c0,10.829-1.442,21.547-4.292,31.863c-1.254,4.54,1.417,9.242,5.956,10.496
				c0.759,0.213,1.527,0.316,2.27,0.316c3.746,0,7.185-2.483,8.226-6.272c3.26-11.793,4.907-24.047,4.907-36.403
				C443.733,61.252,382.481,0,307.2,0c-45.577,0-87.987,22.622-113.434,60.518C191.138,64.435,192.179,69.734,196.096,72.363z"/>
			<path d="M44.22,196.335c0.512,0,1.033-0.051,1.553-0.145c4.634-0.853,7.697-5.308,6.844-9.941
				c-0.939-5.086-1.417-10.334-1.417-15.582c0-47.053,38.281-85.333,85.333-85.333c23.561,0,45.5,9.404,61.773,26.462
				c3.251,3.413,8.661,3.541,12.066,0.29c3.413-3.251,3.541-8.653,0.29-12.066c-19.533-20.48-45.85-31.753-74.129-31.753
				c-56.465,0-102.4,45.935-102.4,102.4c0,6.289,0.572,12.578,1.698,18.679C36.591,193.459,40.183,196.335,44.22,196.335z"/>
			<path d="M468.625,155.247c-3.857-2.705-9.182-1.792-11.895,2.048c-2.714,3.849-1.801,9.173,2.048,11.896
				c22.639,16,36.156,42.069,36.156,69.743c0,47.053-38.281,85.333-85.333,85.333H298.667c-4.71,0-8.533,3.823-8.533,8.533
				c0,4.71,3.823,8.533,8.533,8.533H409.6c56.465,0,102.4-45.935,102.4-102.4C512,205.722,495.787,174.438,468.625,155.247z"/>
			<path d="M326.767,412.1L256,482.867V196.267c0-4.71-3.823-8.533-8.533-8.533s-8.533,3.823-8.533,8.533v286.601L168.166,412.1
				c-3.337-3.337-8.73-3.337-12.066,0s-3.337,8.73,0,12.066l85.333,85.333c0.785,0.785,1.732,1.408,2.773,1.843
				c1.041,0.435,2.15,0.657,3.26,0.657s2.219-0.222,3.26-0.657c1.041-0.435,1.988-1.058,2.782-1.843l85.325-85.333
				c3.337-3.337,3.337-8.73,0-12.066C335.497,408.764,330.103,408.764,326.767,412.1z"/>
		</g>
	</g>
</g>
<g>
</g>
<g>
</g>
<g>
</g>
<g>
</g>
<g>
</g>
<g>
</g>
<g>
</g>
<g>
</g>
<g>
</g>
<g>
</g>
<g>
</g>
<g>
</g>
<g>
</g>
<g>
</g>
<g>
</g>
</svg>
